<svg width="61" height="61" viewBox="0 0 61 61" fill="none" xmlns="http://www.w3.org/2000/svg">
<rect x="0.46875" y="0.496094" width="59.9076" height="59.9076" rx="29.9538" fill="#410603"/>
<rect x="0.46875" y="0.496094" width="59.9076" height="59.9076" rx="29.9538" fill="#410603"/>
<path d="M34.6296 22.7004L38.6174 20.8978L39.7646 21.0615C39.5097 21.6806 38.9561 22.9844 38.7813 23.2466C38.6065 23.5088 37.6524 26.0144 37.1971 27.2344L36.7055 30.7851L37.4156 34.2267L38.9452 38.1598L39.9831 40.3995L36.3231 39.1431L33.5371 38.1052L29.9863 37.5043L27.3642 37.9413L24.4144 38.5968L21.5191 39.307L19.9896 39.5256L20.4812 38.2691C20.9 37.1583 21.7704 34.8385 21.9015 34.4452C22.0326 34.0518 22.7574 31.732 23.1033 30.6213L22.9941 27.5621L21.3552 23.192L20.4813 20.8977L22.0107 21.2253L26.5994 22.7549L30.3688 23.3559L34.6296 22.7004Z" fill="#ED4C4E"/>
</svg>
